<svg width="61" height="61" viewBox="0 0 61 61" fill="none" xmlns="http://www.w3.org/2000/svg">
<path d="M30.5002 5.0834C16.4702 5.0834 5.0835 16.4701 5.0835 30.5001C5.0835 44.5301 16.4702 55.9167 30.5002 55.9167C44.5302 55.9167 55.9168 44.5301 55.9168 30.5001C55.9168 16.4701 44.5302 5.0834 30.5002 5.0834ZM27.9585 50.6555C17.9189 49.4101 10.1668 40.8701 10.1668 30.5001C10.1668 28.9242 10.3702 27.4247 10.7006 25.9505L22.8752 38.1251V40.6667C22.8752 43.4626 25.1627 45.7501 27.9585 45.7501V50.6555ZM45.496 44.1997C44.8352 42.1409 42.9543 40.6667 40.6668 40.6667H38.1252V33.0417C38.1252 31.6438 36.9814 30.5001 35.5835 30.5001H20.3335V25.4167H25.4168C26.8147 25.4167 27.9585 24.273 27.9585 22.8751V17.7917H33.0418C35.8377 17.7917 38.1252 15.5042 38.1252 12.7084V11.6663C45.5722 14.6909 50.8335 21.9855 50.8335 30.5001C50.8335 35.7867 48.8002 40.5905 45.496 44.1997Z" fill="#353535"/>
</svg>
