<svg width="52" height="52" viewBox="0 0 52 52" fill="none" xmlns="http://www.w3.org/2000/svg">
<path d="M12.7738 3.05176e-05L8.51585 17.1481H42.5793L38.3213 3.05176e-05L25.5475 4.28706L12.7738 3.05176e-05ZM4.25793 21.4352L0 25.7222H51.0951L46.8371 21.4352H4.25793Z" fill="#232629"/>
<path d="M17.0318 38.5836H34.0635V42.8706H17.0318V38.5836Z" fill="#232629"/>
<path d="M10.6448 30.0094C7.82163 30.0094 5.11408 31.1385 3.11779 33.1485C1.1215 35.1584 0 37.8845 0 40.7269C0 43.5694 1.1215 46.2955 3.11779 48.3054C5.11408 50.3153 7.82163 51.4445 10.6448 51.4445C12.0427 51.4445 13.4269 51.1673 14.7184 50.6287C16.0099 50.0901 17.1834 49.3006 18.1718 48.3054C19.1603 47.3102 19.9444 46.1287 20.4793 44.8284C21.0143 43.5281 21.2896 42.1344 21.2896 40.7269C21.2896 39.3195 21.0143 37.9258 20.4793 36.6255C19.9444 35.3252 19.1603 34.1437 18.1718 33.1485C17.1834 32.1533 16.0099 31.3638 14.7184 30.8252C13.4269 30.2866 12.0427 30.0094 10.6448 30.0094ZM10.6448 34.2964C12.3387 34.2964 13.9632 34.9739 15.161 36.1799C16.3588 37.3858 17.0317 39.0215 17.0317 40.7269C17.0317 42.4324 16.3588 44.0681 15.161 45.274C13.9632 46.48 12.3387 47.1575 10.6448 47.1575C8.9509 47.1575 7.32637 46.48 6.1286 45.274C4.93083 44.0681 4.25792 42.4324 4.25792 40.7269C4.25792 39.0215 4.93083 37.3858 6.1286 36.1799C7.32637 34.9739 8.9509 34.2964 10.6448 34.2964Z" fill="#232629"/>
<path d="M40.4502 30.0094C37.627 30.0094 34.9194 31.1386 32.9231 33.1485C30.9268 35.1585 29.8053 37.8845 29.8053 40.727C29.8053 43.5695 30.9268 46.2955 32.9231 48.3055C34.9194 50.3154 37.627 51.4446 40.4502 51.4446C43.2733 51.4446 45.9809 50.3154 47.9772 48.3055C49.9735 46.2955 51.095 43.5695 51.095 40.727C51.095 37.8845 49.9735 35.1585 47.9772 33.1485C45.9809 31.1386 43.2733 30.0094 40.4502 30.0094ZM40.4502 34.2965C42.1441 34.2965 43.7686 34.974 44.9664 36.1799C46.1641 37.3859 46.837 39.0215 46.837 40.727C46.837 42.4325 46.1641 44.0681 44.9664 45.2741C43.7686 46.48 42.1441 47.1576 40.4502 47.1576C38.7562 47.1576 37.1317 46.48 35.9339 45.2741C34.7362 44.0681 34.0633 42.4325 34.0633 40.727C34.0633 39.0215 34.7362 37.3859 35.9339 36.1799C37.1317 34.974 38.7562 34.2965 40.4502 34.2965Z" fill="#232629"/>
</svg>
